<svg width="111" height="23" viewBox="0 0 111 23" fill="white" xmlns="http://www.w3.org/2000/svg">
<path d="M14.6373 13.4114C14.6373 11.1312 13.2643 9.513 10.4692 8.80198L5.68819 7.60059C3.8003 7.11023 3.06476 6.17855 3.06476 4.95264C3.06476 3.18735 4.41325 2.32921 6.93861 2.32921C10.1995 2.32921 11.8422 3.70222 11.8422 6.44825H14.1224C14.1224 2.7215 11.6461 0.465843 6.93861 0.465843C2.96668 0.465843 0.809096 2.05952 0.809096 5.05072C0.809096 7.11023 1.93693 8.67939 4.65843 9.39041L9.48849 10.6408C11.499 11.1557 12.3816 12.1855 12.3816 13.534C12.3816 15.4464 11.0576 16.4026 8.06644 16.4026C4.24162 16.4026 2.25566 14.8334 2.25566 11.5235H0C0 15.8632 2.77054 18.2905 8.0174 18.2905C12.6268 18.2905 14.6373 16.5006 14.6373 13.4114Z" />
<path d="M17.3745 22.5811H19.5566V15.0541C20.3657 16.9175 22.082 18.2659 24.7789 18.2659C28.285 18.2659 30.4916 15.6425 30.4916 11.9403C30.4916 8.21355 28.285 5.59011 24.7789 5.59011C22.1555 5.59011 20.4147 6.88957 19.5566 8.80198V5.8353H17.3745V22.5811ZM19.6056 11.9403C19.6056 8.92457 21.6897 7.45349 24.0679 7.45349C26.4462 7.45349 28.3341 8.87553 28.3341 11.9403C28.3341 14.9805 26.4462 16.4026 24.0679 16.4026C21.6897 16.4026 19.6056 14.907 19.6056 11.9403Z" />
<path d="M32.0654 18.0208H40.8674V16.1574H37.4594V7.25734C37.4594 6.2521 36.969 5.8353 36.0864 5.8353H32.9235V7.69867H35.4489V16.1574H32.0654V18.0208ZM34.4682 2.10855C34.4682 3.06476 35.2282 3.75126 36.1844 3.75126C37.1651 3.75126 37.9497 3.06476 37.9497 2.10855C37.9497 1.15235 37.1651 0.465843 36.1844 0.465843C35.2282 0.465843 34.4682 1.15235 34.4682 2.10855Z" />
<path d="M42.7863 18.0208H51.7844V16.1574H48.3764V1.2259C48.3764 0.416806 47.9106 0 47.1015 0H43.6444V1.86337H46.1943V16.1574H42.7863V18.0208Z" />
<path d="M54.2952 18.0208H56.4773V12.8475C56.4773 9.56204 58.12 7.45349 60.768 7.45349C62.852 7.45349 63.8082 8.43421 63.8082 10.9351V18.0208H65.9903V10.6899C65.9903 7.40445 64.3231 5.59011 61.528 5.59011C58.8311 5.59011 57.1393 6.96312 56.4773 9.14523V5.8353H54.2952V18.0208Z" />
<path d="M72.0649 7.65277C72.0649 6.53828 72.9192 5.60984 74.0299 5.51728L79.7819 5.03795C80.0272 5.0175 80.2376 5.21111 80.2376 5.45729V6.41874C80.2376 7.13972 79.6532 7.7242 78.9322 7.7242L72.1364 7.7242C72.0969 7.7242 72.0649 7.69222 72.0649 7.65277Z" />
<path d="M71.6528 16.2374C70.5383 16.2374 69.6099 15.3831 69.5173 14.2724L69.038 8.52042C69.0175 8.27509 69.2111 8.06468 69.4573 8.06468L70.4188 8.06468C71.1398 8.06468 71.7242 8.64916 71.7242 9.37014L71.7242 16.1659C71.7242 16.2054 71.6922 16.2374 71.6528 16.2374Z" />
<path d="M80.2373 16.6491C80.2373 17.7635 79.383 18.692 78.2724 18.7845L72.5204 19.2639C72.275 19.2843 72.0646 19.0907 72.0646 18.8445L72.0646 17.8831C72.0646 17.1621 72.6491 16.5776 73.3701 16.5776L80.1659 16.5776C80.2053 16.5776 80.2373 16.6096 80.2373 16.6491Z" />
<path d="M80.6527 8.0647C81.7774 8.0647 82.7262 8.90224 82.8657 10.0183L83.5815 15.7446C83.6142 16.0063 83.4102 16.2374 83.1465 16.2374L82.0153 16.2374C81.2217 16.2374 80.5783 15.594 80.5783 14.8004L80.5783 8.13904C80.5783 8.09798 80.6116 8.0647 80.6527 8.0647Z" />
<path d="M94.8276 16.0734L90.5124 16.0979V7.61463H94.3372V5.75126H90.5124V2L88.3303 2.66199V5.75126H85.6333V7.61463H88.3303V16.2205C88.3303 17.3973 88.8942 17.9367 90.0465 17.9367H94.8276V16.0734Z" />
<path d="M96.831 14.5532C96.831 15.8282 97.3704 18.1819 100.95 18.1819C103.966 18.1819 105.388 16.6373 105.952 14.921V16.4656C105.952 17.3973 106.491 17.9367 107.423 17.9367H109.654V16.0734H107.864V10.9736C107.864 7.68819 105.976 5.50608 102.446 5.50608C99.2582 5.50608 97.3704 7.32042 97.1007 10.091H99.2582C99.4544 8.05596 100.705 7.27138 102.397 7.27138C104.603 7.27138 105.584 8.32566 105.682 10.5323L100.901 10.9981C98.0078 11.2678 96.831 12.6163 96.831 14.5532ZM98.9885 14.2835C98.9885 13.1067 99.7731 12.6899 101.269 12.5428L105.682 12.0769C105.682 14.5287 103.941 16.3921 101.293 16.3921C99.8957 16.3921 98.9885 15.6811 98.9885 14.2835Z" />
</svg>
