<svg width="200" height="91" viewBox="0 0 200 91" fill="none" xmlns="http://www.w3.org/2000/svg">
<path d="M199.5 66.9376C199.5 68.394 198.87 69.8547 197.592 71.3117C196.312 72.7718 194.401 74.2042 191.9 75.5845C186.897 78.3448 179.626 80.8468 170.597 82.954C152.548 87.1665 127.588 89.7767 100 89.7767C72.4123 89.7767 47.4523 87.1665 29.403 82.954C20.3743 80.8468 13.1025 78.3448 8.10006 75.5845C5.59865 74.2042 3.68786 72.7718 2.4076 71.3117C1.13017 69.8547 0.5 68.394 0.5 66.9376C0.5 65.4812 1.13017 64.0206 2.4076 62.5636C3.68786 61.1034 5.59865 59.671 8.10006 58.2908C13.1025 55.5304 20.3743 53.0285 29.403 50.9213C47.4523 46.7088 72.4123 44.0985 100 44.0985C127.588 44.0985 152.548 46.7088 170.597 50.9213C179.626 53.0285 186.897 55.5304 191.9 58.2908C194.401 59.671 196.312 61.1034 197.592 62.5636C198.87 64.0206 199.5 65.4812 199.5 66.9376Z" fill="url(#paint0_linear_1418_314)" stroke="white"/>
<path d="M67.745 66.9486C67.745 66.5774 67.904 66.1763 68.2842 65.7426C68.6673 65.3057 69.2549 64.8604 70.0522 64.4205C71.6464 63.5408 73.9864 62.7325 76.9209 62.0476C82.7818 60.6797 90.9037 59.8289 99.8925 59.8289C108.881 59.8289 117.003 60.6797 122.864 62.0476C125.799 62.7325 128.139 63.5407 129.733 64.4204C130.53 64.8604 131.118 65.3057 131.501 65.7426C131.881 66.1763 132.04 66.5774 132.04 66.9486C132.04 67.3198 131.881 67.7209 131.501 68.1546C131.118 68.5915 130.53 69.0368 129.733 69.4767C128.139 70.3564 125.799 71.1647 122.864 71.8496C117.003 73.2175 108.881 74.0682 99.8925 74.0682C90.9037 74.0682 82.7818 73.2175 76.9209 71.8496C73.9864 71.1647 71.6464 70.3564 70.0522 69.4767C69.2549 69.0368 68.6673 68.5915 68.2842 68.1546C67.904 67.7209 67.745 67.3198 67.745 66.9486Z" fill="url(#paint1_linear_1418_314)" stroke="white"/>
<mask id="path-3-inside-1_1418_314" fill="white">
<ellipse cx="99.8403" cy="66.9486" rx="2.22895" ry="0.380982"/>
</mask>
<ellipse cx="99.8403" cy="66.9486" rx="2.22895" ry="0.380982" fill="url(#paint2_linear_1418_314)"/>
<path d="M101.069 66.9486C101.069 66.5488 101.308 66.3203 101.383 66.2579C101.43 66.2186 101.469 66.1958 101.487 66.1855C101.498 66.1797 101.506 66.1758 101.511 66.1734C101.516 66.1711 101.519 66.1699 101.519 66.1697C101.52 66.1695 101.514 66.1719 101.5 66.1763C101.486 66.1806 101.468 66.186 101.443 66.1921C101.394 66.2046 101.329 66.2184 101.248 66.2323C100.915 66.2891 100.417 66.3296 99.8403 66.3296V68.3296C100.494 68.3296 101.111 68.2847 101.585 68.2037C101.814 68.1645 102.058 68.109 102.269 68.024C102.369 67.9834 102.521 67.913 102.665 67.7928C102.799 67.6808 103.069 67.4009 103.069 66.9486H101.069ZM99.8403 66.3296C99.2633 66.3296 98.7651 66.2891 98.4327 66.2323C98.3516 66.2184 98.2867 66.2046 98.2373 66.1921C98.2128 66.186 98.1941 66.1806 98.1805 66.1763C98.1666 66.1719 98.1607 66.1695 98.1612 66.1697C98.1616 66.1699 98.1645 66.1711 98.1696 66.1734C98.1746 66.1758 98.1826 66.1797 98.1931 66.1855C98.212 66.1958 98.2507 66.2186 98.2977 66.2579C98.3724 66.3203 98.6113 66.5488 98.6113 66.9486H96.6113C96.6113 67.4009 96.8814 67.6808 97.0155 67.7928C97.1594 67.913 97.3113 67.9834 97.4118 68.024C97.6221 68.109 97.8666 68.1645 98.0957 68.2037C98.57 68.2847 99.1862 68.3296 99.8403 68.3296V66.3296ZM98.6113 66.9486C98.6113 67.3483 98.3724 67.5768 98.2977 67.6393C98.2507 67.6785 98.212 67.7013 98.1931 67.7117C98.1826 67.7174 98.1746 67.7214 98.1696 67.7237C98.1645 67.7261 98.1616 67.7273 98.1612 67.7274C98.1607 67.7276 98.1666 67.7252 98.1805 67.7209C98.1941 67.7166 98.2128 67.7112 98.2373 67.705C98.2867 67.6925 98.3516 67.6787 98.4327 67.6649C98.7651 67.6081 99.2633 67.5676 99.8403 67.5676V65.5676C99.1862 65.5676 98.57 65.6124 98.0957 65.6935C97.8666 65.7326 97.6221 65.7881 97.4118 65.8731C97.3113 65.9137 97.1594 65.9842 97.0155 66.1043C96.8814 66.2164 96.6113 66.4962 96.6113 66.9486H98.6113ZM99.8403 67.5676C100.417 67.5676 100.915 67.6081 101.248 67.6649C101.329 67.6787 101.394 67.6925 101.443 67.705C101.468 67.7112 101.486 67.7166 101.5 67.7209C101.514 67.7252 101.52 67.7276 101.519 67.7274C101.519 67.7273 101.516 67.7261 101.511 67.7237C101.506 67.7214 101.498 67.7174 101.487 67.7117C101.469 67.7013 101.43 67.6785 101.383 67.6393C101.308 67.5768 101.069 67.3483 101.069 66.9486H103.069C103.069 66.4962 102.799 66.2164 102.665 66.1043C102.521 65.9842 102.369 65.9137 102.269 65.8731C102.058 65.7881 101.814 65.7326 101.585 65.6935C101.111 65.6124 100.494 65.5676 99.8403 65.5676V67.5676Z" fill="white" mask="url(#path-3-inside-1_1418_314)"/>
<path d="M99.7949 0.276718V66.9486" stroke="white"/>
<defs>
<linearGradient id="paint0_linear_1418_314" x1="100" y1="43.5985" x2="100" y2="90.2767" gradientUnits="userSpaceOnUse">
<stop stop-color="white" stop-opacity="0.27"/>
<stop offset="1" stop-opacity="0"/>
</linearGradient>
<linearGradient id="paint1_linear_1418_314" x1="99.8925" y1="74.5682" x2="99.8925" y2="59.3289" gradientUnits="userSpaceOnUse">
<stop stop-color="white" stop-opacity="0.27"/>
<stop offset="1" stop-opacity="0"/>
</linearGradient>
<linearGradient id="paint2_linear_1418_314" x1="99.8403" y1="66.5676" x2="99.8403" y2="67.3296" gradientUnits="userSpaceOnUse">
<stop stop-color="white" stop-opacity="0.27"/>
<stop offset="1" stop-opacity="0"/>
</linearGradient>
</defs>
</svg>
