<svg width="642" height="200" viewBox="0 0 642 200" fill="none" xmlns="http://www.w3.org/2000/svg">
<path d="M640.895 147.734C640.895 151.1 638.772 154.464 634.541 157.785C630.318 161.101 624.063 164.317 615.968 167.392C599.781 173.54 576.334 179.084 547.331 183.743C489.331 193.061 409.19 198.825 320.658 198.825C232.126 198.825 151.985 193.061 93.9852 183.743C64.9821 179.084 41.535 173.54 25.3482 167.392C17.2525 164.317 10.9976 161.101 6.77424 157.785C2.54373 154.464 0.420429 151.1 0.420429 147.734C0.420429 144.369 2.54373 141.005 6.77424 137.684C10.9976 134.368 17.2525 131.152 25.3482 128.077C41.535 121.929 64.9821 116.385 93.9852 111.726C151.985 102.408 232.126 96.6436 320.658 96.6436C409.19 96.6436 489.331 102.408 547.331 111.726C576.334 116.385 599.781 121.929 615.968 128.077C624.063 131.152 630.318 134.368 634.541 137.684C638.772 141.005 640.895 144.369 640.895 147.734Z" fill="url(#paint0_linear_1268_82)" stroke="white" stroke-width="0.840858"/>
<path d="M216.047 147.759C216.047 146.788 216.659 145.763 218.013 144.7C219.359 143.643 221.371 142.605 224.002 141.606C229.261 139.609 236.893 137.802 246.355 136.282C265.272 133.243 291.42 131.362 320.313 131.362C349.206 131.362 375.355 133.243 394.271 136.282C403.733 137.802 411.366 139.609 416.624 141.606C419.255 142.605 421.267 143.643 422.614 144.7C423.967 145.763 424.58 146.788 424.58 147.759C424.58 148.729 423.967 149.755 422.614 150.817C421.267 151.874 419.255 152.912 416.624 153.912C411.366 155.909 403.733 157.715 394.271 159.235C375.355 162.274 349.206 164.155 320.313 164.155C291.42 164.155 265.272 162.274 246.355 159.235C236.893 157.715 229.261 155.909 224.002 153.912C221.371 152.912 219.359 151.874 218.013 150.817C216.659 149.755 216.047 148.729 216.047 147.759Z" fill="url(#paint1_linear_1268_82)" stroke="white" stroke-width="0.840858"/>
<path d="M325.152 147.582C325.608 147.635 325.993 147.695 326.296 147.759C325.993 147.822 325.608 147.882 325.152 147.936C323.88 148.085 322.11 148.179 320.147 148.179C318.185 148.179 316.415 148.085 315.143 147.936C314.686 147.882 314.302 147.822 313.999 147.759C314.302 147.695 314.686 147.635 315.143 147.582C316.415 147.432 318.185 147.338 320.147 147.338C322.11 147.338 323.88 147.432 325.152 147.582Z" fill="url(#paint2_linear_1268_82)" stroke="white" stroke-width="0.840858"/>
<path d="M320 0.608459V147.759" stroke="white" stroke-width="0.840858"/>
<defs>
<linearGradient id="paint0_linear_1268_82" x1="320.658" y1="96.2231" x2="320.658" y2="199.246" gradientUnits="userSpaceOnUse">
<stop stop-color="white" stop-opacity="0.27"/>
<stop offset="1" stop-opacity="0"/>
</linearGradient>
<linearGradient id="paint1_linear_1268_82" x1="320.313" y1="164.576" x2="320.313" y2="130.941" gradientUnits="userSpaceOnUse">
<stop stop-color="white" stop-opacity="0.27"/>
<stop offset="1" stop-opacity="0"/>
</linearGradient>
<linearGradient id="paint2_linear_1268_82" x1="320.147" y1="146.918" x2="320.147" y2="148.6" gradientUnits="userSpaceOnUse">
<stop stop-color="white" stop-opacity="0.27"/>
<stop offset="1" stop-opacity="0"/>
</linearGradient>
</defs>
</svg>
